<svg width="1304" height="109" viewBox="0 0 1304 109" fill="none" xmlns="http://www.w3.org/2000/svg">
<path d="M1262 0.5L1266.02 39.1368C1266.5 43.7458 1270.08 47.4219 1274.67 48.0195L1304 51.8334L1274.93 55.0923C1270.22 55.6208 1266.52 59.3892 1266.09 64.1133L1262 108.5L1257.63 64.0482C1257.16 59.3542 1253.48 55.6212 1248.8 55.091L1220 51.8334L1249.06 48.0199C1253.63 47.421 1257.19 43.7841 1257.7 39.2092L1262 0.5Z" fill="#E8D8BD"/>
<path d="M42 1L46.0159 39.6368C46.495 44.2458 50.0777 47.9219 54.6728 48.5195L84 52.3334L54.9301 55.5923C50.2156 56.1208 46.5212 59.8892 46.0863 64.6133L42 109L37.6253 64.5482C37.1633 59.8542 33.4842 56.1212 28.7974 55.591L0 52.3334L29.0612 48.5199C33.625 47.921 37.1906 44.2841 37.6989 39.7092L42 1Z" fill="#E8D8BD"/>
<line x1="65" y1="52" x2="1228" y2="52" stroke="#E8D8BD" stroke-width="2"/>
</svg>
