<svg width="30" height="30" viewBox="0 0 30 30" fill="none" xmlns="http://www.w3.org/2000/svg">
<g clip-path="url(#clip0_211_3520)">
<circle cx="15" cy="15" r="14.5" stroke="#E1A730"/>
<path d="M15.5 3L16.0289 10.4281C16.2041 12.8887 18.1476 14.8538 20.6062 15.0562L26 15.5L20.6062 15.9438C18.1476 16.1462 16.2041 18.1113 16.0289 20.5719L15.5 28L14.9711 20.5719C14.796 18.1113 12.8524 16.1462 10.3938 15.9438L5 15.5L10.3938 15.0562C12.8524 14.8538 14.796 12.8887 14.9711 10.4281L15.5 3Z" fill="#E1A730"/>
<path d="M7.89713 7.5476L12.147 11.3404C13.9872 12.9826 16.7501 13.0376 18.6542 11.47L22.8262 8.03528L19.1729 12.0173C17.5055 13.8347 17.4125 16.5965 18.9538 18.522L22.5134 22.969L18.2635 19.1763C16.4233 17.534 13.6605 17.479 11.7564 19.0466L7.5844 22.4813L11.2377 18.4993C12.9051 16.6819 12.9981 13.9201 11.4568 11.9946L7.89713 7.5476Z" fill="#E1A730"/>
<circle cx="15.5" cy="15.5" r="1.5" fill="#F7CF63"/>
</g>
<defs>
<clipPath id="clip0_211_3520">
<rect width="30" height="30" fill="white"/>
</clipPath>
</defs>
</svg>
