<svg width="160" height="160" viewBox="0 0 160 160" fill="none" xmlns="http://www.w3.org/2000/svg">
<circle cx="80" cy="80" r="80" fill="#FFD691"/>
<path d="M24.0018 118.097C23.9581 120.857 24.717 123.055 26.7901 124.948C29.4431 127.371 33.3054 126.827 36.4055 125.59C42.7416 123.062 47.3685 116.86 51.53 111.829C58.4579 103.454 64.5447 94.3112 70.3723 85.1656C77.5286 73.9349 84.3002 62.4637 91.6479 51.3508C95.9453 44.8513 100.549 38.5325 104.685 31.9304C106.264 29.4102 108.038 27.0108 109.611 24.4956C110.314 23.3727 109.007 24.4652 108.724 24.779C108.292 25.2587 108.029 25.9713 107.795 26.5627C106.781 29.125 106.611 32.1634 106.046 34.831C102.12 53.3749 98.0346 71.9035 95.2643 90.6584C94.0003 99.2158 93.0736 107.898 92.5267 116.53C92.4846 117.194 92.1327 125.082 91.9859 125.082C91.7966 125.082 90.8001 118.389 90.6593 117.722C89.5095 112.27 88.369 106.831 86.798 101.477C84.9369 95.1352 82.6146 88.8271 79.7849 82.8402C76.1483 75.146 71.8653 67.2579 65.9448 61.0193C62.4729 57.361 56.8796 54.5108 51.699 55.1015C48.02 55.521 43.248 57.1637 40.9682 60.2775C38.9073 63.0925 38.7006 67.0333 39.9205 70.2378C41.7541 75.0545 46.0595 77.7622 50.8541 79.2228C57.7344 81.3188 65.8196 80.8896 72.8564 80.073C84.1131 78.7666 95.1994 75.6974 106.113 72.7966C112.408 71.1235 118.726 69.5359 125.032 67.904C128.772 66.936 140.028 64.1977 136.227 64.9034C134.467 65.2302 132.761 66.1285 131.149 66.8704C129.266 67.7375 127.359 68.5822 125.547 69.5876C116.756 74.4655 108.22 79.6403 100.097 85.574C89.6339 93.2176 79.8181 101.72 70.6257 110.812C66.7119 114.683 62.9763 118.747 59.4894 122.998C56.6222 126.493 54.1969 130.259 51.6821 134" stroke="#201E1C" stroke-width="4" stroke-linecap="round"/>
</svg>
