<svg width="80" height="80" viewBox="0 0 80 80" fill="none" xmlns="http://www.w3.org/2000/svg">
<g opacity="0.4" clip-path="url(#clip0_139_4954)">
<path d="M45.4672 35.5154C47.9123 38.116 56.7768 29.8139 59 21C50.5652 23.5171 43.0221 32.9148 45.4672 35.5154Z" fill="#342E29"/>
<path d="M7.23212 -0.0200839C7.24823 3.7991 20.271 4.68092 28.4592 -0.0200853C20.0035 -4.79481 7.21601 -3.83926 7.23212 -0.0200839Z" fill="#342E29"/>
<path d="M-0.0322843 6.73188C-3.85146 6.74799 -4.73329 19.7707 -0.0322829 27.9589C4.74244 19.5032 3.7869 6.71577 -0.0322843 6.73188Z" fill="#342E29"/>
<path d="M73.2681 -0.0200839C73.252 3.7991 60.2293 4.68092 52.0411 -0.0200853C60.4968 -4.79481 73.2842 -3.83926 73.2681 -0.0200839Z" fill="#342E29"/>
<path d="M80.0322 6.73188C83.8513 6.74799 84.7332 19.7707 80.0322 27.9589C75.2574 19.5032 76.213 6.71577 80.0322 6.73188Z" fill="#342E29"/>
<path d="M7.23212 80.0201C7.24823 76.2009 20.271 75.3191 28.4592 80.0201C20.0035 84.7948 7.21601 83.8393 7.23212 80.0201Z" fill="#342E29"/>
<path d="M-0.0322843 73.2681C-3.85146 73.252 -4.73329 60.2293 -0.0322829 52.0411C4.74244 60.4968 3.7869 73.2842 -0.0322843 73.2681Z" fill="#342E29"/>
<path d="M73.2681 80.0201C73.252 76.2009 60.2293 75.3191 52.0411 80.0201C60.4968 84.7948 73.2842 83.8393 73.2681 80.0201Z" fill="#342E29"/>
<path d="M80.0322 73.2681C83.8513 73.252 84.7332 60.2293 80.0322 52.0411C75.2574 60.4968 76.213 73.2842 80.0322 73.2681Z" fill="#342E29"/>
<path d="M35.4995 35.5154C32.8797 38.116 23.382 29.8139 21 21C30.0372 23.5171 38.1192 32.9148 35.4995 35.5154Z" fill="#342E29"/>
<path d="M45.4672 44.4846C47.9123 41.884 56.7768 50.1861 59 59C50.5652 56.4829 43.0221 47.0852 45.4672 44.4846Z" fill="#342E29"/>
<path d="M35.4995 44.4846C32.8797 41.884 23.382 50.1861 21 59C30.0372 56.4829 38.1192 47.0852 35.4995 44.4846Z" fill="#342E29"/>
<path d="M40.5 16L41.2653 29.9811C41.5333 34.8767 45.3111 38.856 50.1862 39.3778L56 40L50.1862 40.6222C45.3111 41.144 41.5333 45.1233 41.2653 50.0189L40.5 64L39.7347 50.0189C39.4667 45.1233 35.6889 41.144 30.8138 40.6222L25 40L30.8138 39.3778C35.6889 38.856 39.4667 34.8767 39.7347 29.9811L40.5 16Z" fill="#342E29"/>
<path d="M77.7347 2.68579L61.224 19.1966" stroke="#342E29" stroke-linecap="round"/>
<path d="M2.83228 2.68579L19.343 19.1966" stroke="#342E29" stroke-linecap="round"/>
<path d="M77.7347 77.3809L61.224 60.8701" stroke="#342E29" stroke-linecap="round"/>
<path d="M2.83228 77.3809L19.343 60.8701" stroke="#342E29" stroke-linecap="round"/>
</g>
<defs>
<clipPath id="clip0_139_4954">
<rect width="80" height="80" fill="white"/>
</clipPath>
</defs>
</svg>
